# xmcd
#
# Track frame offsets: 
#        150
#        17922
#        33387
#        49082
#        69657
#        83050
#        108035
#        125672
#        138757
#        152865
#        170252
#        196832
#
# Disc length: 3057 seconds
#
# Revision: 1
# Processed by: cddbd v1.5.1PL2 Copyright (c) Steve Scherf et al.
# Submitted via: ExactAudioCopy v0.95b3
#
DISCID=970bef0c
DTITLE=Cross Canadian Ragweed - Carney
DYEAR=2002
DGENRE=Country
TTITLE0=Carney Man
TTITLE1=Hey Hey
TTITLE2=Help Me (Get Over This Mountain)
TTITLE3=Jenny
TTITLE4=Alright
TTITLE5=Headed South
TTITLE6=Leave Your Leaving
TTITLE7=April's Girlfriend
TTITLE8=Sweet Theresa
TTITLE9=Go On And Lie
TTITLE10=On Your Own
TTITLE11=Proud Souls
EXTD=
EXTT0=
EXTT1=
EXTT2=
EXTT3=
EXTT4=
EXTT5=
EXTT6=
EXTT7=
EXTT8=
EXTT9=
EXTT10=
EXTT11=
PLAYORDER=
